<?xml version="1.0" encoding="UTF-8"?>
<svg version="1.1" viewBox="0 0 684 380" width="684" height="380" xmlns="http://www.w3.org/2000/svg">
    <g transform="translate(-290, -238)">
        <path transform="translate(290,318)" d="m0 0 9 2 51 17 50 16 70 23 62 21 34 12 41 14 14 4 16 2h36l14-2 20-6 21-9 31-13 28-11 24-9 15-4 14-2h22l17 3 13 5 11 6 10 8 9 10 7 12 4 13 1 9 6 2 10 6 13 10 9 9 2 4-13-1h-20l-17 3-10 4-11 8-10 9-11 9-10 9-14 11-15 11-20 12-19 9-20 6-19 3h-23l-19-3-21-6-16-6-20-9-19-9-3-1h-20l-25 5-42 11-37 8-10 2-4-1 9-10 8-8 20-15 16-10 18-8 5-2-29 4-36 8-36 10-37 12-32 12-33 13-35 15-2-1 8-11 12-13 13-12 13-10 18-12 21-12 28-13 25-9 29-8 27-5 13-2 29-2 25 1-18-4-56-6-28-5-26-7-20-7-23-10-21-10-24-14-19-12-16-12-10-8-14-12-10-10-8-7-10-11-7-8z" fill="#013563"/>
        <path transform="translate(290,318)" d="m0 0 9 2 51 17 50 16 70 23 62 21 34 12 41 14 14 4 16 2h36l14-2 20-6 21-9 31-13 10-3-4 4-23 12-19 12-18 11-16 11-18 12-13 8-9 3-6 1h-21l-14-2-12-4-19-3-48-5-28-5-26-7-20-7-23-10-21-10-24-14-19-12-16-12-10-8-14-12-10-10-8-7-10-11-7-8z" fill="#0167A9"/>
        <path transform="translate(790,421)" d="m0 0h28l20 4 20 8 16 8 13 6 10 3h12l10-1-3 3-17 5-11 6-11 8-18 11-23 12-25 10-19 6-28 6-20 2h-23l-26-3-36-7-25-6-13-2h-26l-9 1-3-2 22-4 30-10 25-11 29-14 34-17 18-8 16-6 21-6z" fill="#0595D1"/>
        <path transform="translate(577,275)" d="m0 0 4 2 10 7 23 12 23 11 26 12 40 18 21 9 28 14 14 10 12 11 1 4-34 13-15 7-21 8-21 5h-8l-8-3-10-9-6-9v-1l9 1h11l-21-7-10-6-10-9-4-4 1-2 15 4 16 1v-2l-13-1-13-5-9-6-9-8-5-7 2-1 16 5h3l-14-7-10-8-7-6-9-12-3-7 5 2 10 5 6 1-12-8-10-9-7-9-6-12z" fill="#013665"/>
        <path transform="translate(564,238)" d="m0 0 19 9 23 11 37 15 35 14 33 13 28 13 19 12 13 12 8 8 10 15 6 13 1 5-14 5-9-11-13-10-18-11-15-8-54-25-47-23-21-11-14-9-11-9-9-10-6-12z" fill="#0168AA"/>
        <path transform="translate(894,419)" d="m0 0 6 1 3 4v6l-3 4-5 1-5-3-2-6 3-5z" fill="#EEEFEF"/>
        <path transform="translate(917,449)" d="m0 0 2 1-9 4-10 2 1-3-4-2z" fill="#016BAC"/>
    </g>
</svg>